<?xml version="1.0" encoding="utf-8"?>
<svg height="100%" viewBox="10 22 470 470" xmlns="http://www.w3.org/2000/svg" preserveAspectRatio="xMidYMid meet">
  <path fill="#FFFFFF" d="M 180.959 44.415 C 180.959 44.415 154.9 57.077 160.564 76.959 C 166.228 96.841 170.561 106.741 183.842 105.668 C 197.123 104.595 201.176 110.407 200.827 119.048 C 200.478 127.689 200.129 139.652 198.03 142.545 C 195.931 145.438 222.689 146.73 230.42 146.73 C 238.151 146.73 273.267 147.366 278.032 145.772 C 282.797 144.178 291.571 146.501 291.694 142.965 C 291.817 139.429 289.775 116.629 289.926 113.084 C 290.077 109.539 304.241 110.017 307.605 108.842 C 310.969 107.667 332.514 99.975 329.939 77.657 C 329.939 77.657 312.439 59.97 308.314 56.087 C 308.314 56.087 296.848 30.837 276.605 32.069 C 256.362 33.301 243.475 36.332 243.475 36.413 C 243.475 36.494 218.785 25.824 208.558 29.147 C 198.331 32.47 197.157 39.694 190.556 41.715 C 183.955 43.736 180.439 45.225 180.959 44.415 Z" transform="matrix(1, 0, 0, 1, 0, -1.4210854715202004e-14)"/>
  <path fill="#FFFFFF" d="M 190.204 137.832 C 190.204 137.832 190.616 128.806 173.473 129.264 C 156.33 129.722 149.629 123.696 147.103 119.095 C 144.577 114.494 132.249 83.199 135.686 75.486 C 139.123 67.773 122.655 92.514 120.762 99.811 C 118.869 107.108 120.733 117.236 120.733 126.113 C 120.733 134.99 133.17 147.834 134.824 147.834 C 136.478 147.834 149.509 157.301 158.642 157.782 C 167.775 158.263 171.907 164.212 179.545 160.4 C 187.183 156.588 196.334 158.004 196.077 147.814 C 195.82 137.624 191.639 137.155 190.204 137.832 Z" transform="matrix(1, 0, 0, 1, 0, -1.4210854715202004e-14)"/>
  <path fill="#FFFFFF" d="M 300.314 133.454 L 293.92 136.821 C 293.92 136.821 290.022 135.462 293.92 148.295 C 297.818 161.128 299.626 157.795 308.259 163.865 C 316.892 169.935 350.074 157.725 352.066 152.225 C 354.058 146.725 377.814 132.509 368.824 101.561 C 359.834 70.613 350.639 66.045 350.639 68.553 C 350.639 71.061 355.113 118.746 342.641 121.082 C 342.641 121.082 327.946 132.392 317.973 130.679 C 308 128.966 300.871 133.558 300.314 133.454 Z" transform="matrix(1, 0, 0, 1, 0, -1.4210854715202004e-14)"/>
  <ellipse fill="#FFFFFF" cx="282.709" cy="181.4" rx="9.525" ry="9.525" transform="matrix(1, 0, 0, 1, 0, -1.4210854715202004e-14)"/>
  <ellipse fill="#FFFFFF" cx="206.453" cy="181.651" rx="9.525" ry="9.525" transform="matrix(1, 0, 0, 1, 0, -1.4210854715202004e-14)"/>
  <rect fill="#EAC5A8" x="206.691" y="227.918" width="75.554" height="37.666" transform="matrix(1, 0, 0, 1, 0, -1.4210854715202004e-14)"/>
  <path d="M 212.339 23.529 C 221.98 23.408 231.454 26.553 239.816 31.155 C 242.379 29.83 245.017 28.678 247.732 27.7 C 250.446 26.721 253.212 25.924 256.031 25.309 C 269.317 22.399 284.892 23.717 296.511 31.267 C 303.007 35.488 307.009 40.753 310.515 47.563 C 311.731 49.926 312.884 52.451 314.609 54.491 C 322.018 63.251 330.667 61.114 333.677 76.112 C 335.507 85.23 332.226 96.203 327.071 103.763 C 319.522 114.834 307.939 116.193 295.796 118.43 C 295.72 122.05 295.699 125.671 295.732 129.293 C 309.401 122.286 325.061 130.912 337.546 119.219 C 351.596 106.062 347.326 78.254 347.704 60.915 C 357.762 69.743 366.174 83.851 370.096 96.579 C 374.473 110.782 374.196 126.721 367.026 139.996 C 361.244 150.701 351.726 158.215 340.083 161.615 C 345.184 163.109 349.829 165.177 354.501 167.701 C 351.001 171.613 348.61 176.464 345.12 180.454 C 339.909 186.413 333.222 190.298 325.176 190.803 C 318.736 191.208 311.845 190.209 306.892 185.782 C 305.709 187.457 304.377 188.867 302.952 190.337 C 307.02 199.068 307.307 208.259 304.816 217.505 C 323.777 229.671 342.681 242.81 359.181 258.224 C 365.14 258.786 370.901 259.514 376.662 261.202 C 394.275 266.363 409.737 277.876 418.557 294.117 C 429.952 315.101 428.218 331.57 421.65 353.489 C 424.156 360.186 425.463 367.528 426.084 374.633 C 431.03 431.179 392.946 453.432 361.225 490.906 C 340.694 490.878 319.8 491.845 299.777 486.45 C 292.044 484.367 284.687 481.295 277.271 478.312 C 257.635 470.846 236.935 468.996 216.906 476.354 C 205.516 480.539 194.591 485.452 182.634 487.936 C 164.45 491.713 145.09 490.866 126.611 490.963 C 110.325 468.683 86.403 452.472 73.054 428.723 C 60.132 405.733 59.798 377.949 66.771 353.058 C 65.226 347.748 63.404 342.702 62.548 337.203 C 59.717 319.018 64.9 299.934 75.885 285.24 C 89.423 267.131 107.536 260.677 129.105 257.668 C 146.918 243.128 164.437 229.357 184.129 217.393 C 181.035 208.07 182.204 200.024 185.314 190.941 L 182.09 186.096 C 181.615 186.367 181.136 186.633 180.655 186.893 C 173.198 190.943 165.356 192.258 157.151 189.67 C 146.523 186.318 139.134 177.169 134.238 167.581 C 137.798 165.521 142.2 163.145 146.17 162.135 C 146.341 162.091 146.513 162.055 146.684 162.015 C 146.192 160.938 144.522 160.408 143.457 159.846 C 137.616 156.771 132.215 153.628 127.629 148.796 C 118.782 139.477 115.004 126.433 115.443 113.767 C 116.122 94.181 127.187 74.051 141.409 60.942 C 141.344 75.082 139.592 91.248 143.328 104.935 C 147.213 119.17 157.571 126.411 172.017 126.762 C 176.935 126.881 181.913 126.242 186.752 127.378 C 189.136 127.937 191.283 129.254 193.396 130.448 C 193.42 125.072 193.844 119.605 191.462 114.619 L 189.276 109.944 C 181.224 109.462 173.827 107.848 167.285 102.896 C 159.708 97.162 155.136 88.723 153.899 79.347 C 152.576 69.327 155.155 58.582 161.452 50.592 C 167.465 42.961 176.719 39.069 186.175 37.996 C 187.103 36.692 188.032 35.379 189.034 34.131 C 195.026 26.673 203.295 24.47 212.339 23.529 Z M 208.731 35.447 C 202.958 37.095 198.833 39.477 195.875 44.999 C 190.103 55.773 192.185 70.16 195.433 81.348 C 189.393 71.058 184.289 62.194 184.391 49.936 C 177.551 52.043 171.781 55.06 168.226 61.64 C 164.977 67.654 163.935 75.021 166.03 81.595 C 167.026 84.72 168.723 87.209 171.619 88.799 L 170.169 86.307 C 171.297 86.507 172.004 86.985 172.967 87.572 C 173.943 85.212 172.289 81.835 172.387 79.204 C 172.599 73.511 173.861 66.813 176.118 61.568 C 176.465 72.575 179.531 84.179 187.96 91.948 C 188.735 92.663 189.535 93.187 190.438 93.721 C 191.177 93.089 191.399 92.635 191.848 91.79 L 192.528 92.035 C 192.459 93.184 192.331 93.874 191.806 94.902 C 193.071 96.207 195.266 96.84 196.926 97.54 C 198.271 97.34 199.341 96.503 200.283 95.5 C 198.886 94.6 196.023 94.461 195.226 93.142 L 195.809 92.576 C 197.466 92.769 202.224 95.18 203.171 94.755 C 201.387 93.302 198.823 92.963 197.397 91.33 L 197.64 90.653 C 200.058 91.295 203.024 92.248 204.765 94.098 L 206.163 93.715 L 206.475 94.389 C 205.9 95.421 205.734 96.251 204.497 96.57 C 202.344 97.124 200.258 95.815 198.355 97.383 L 198.407 98.477 C 203.32 100.171 221.384 93.809 226.34 91.584 C 225.105 88.552 224.4 85.59 223.741 82.391 L 224.327 82.751 C 237.35 90.907 247.744 107.105 265.533 102.868 C 267.497 102.4 269.359 101.562 271.091 100.537 C 271.253 100.505 271.415 100.47 271.578 100.441 C 275.368 99.759 279.213 100.135 283.034 99.834 C 292.765 99.068 300.139 93.284 305.583 85.581 C 307.035 83.526 308.021 81.136 309.533 79.157 C 307.391 88.834 305.247 96.699 299.34 104.871 C 305.877 104.716 311.288 103.609 316.063 98.706 C 320.25 94.406 323.172 87.833 322.908 81.771 C 322.731 77.73 321.258 74.674 318.209 72.036 C 314.396 68.739 309.857 66.605 306.49 62.756 C 296.357 51.169 296.455 38.518 276.811 36.469 C 274.328 36.21 270.335 35.533 267.926 35.954 C 267.34 36.056 267.209 36.172 266.755 36.433 C 266.367 37.548 266.256 37.347 266.668 38.576 L 269.015 38.848 L 269.228 39.32 C 267.26 40.231 265.338 41.117 263.277 41.804 C 262.544 41.047 262.393 40.629 262.023 39.668 L 260.602 38.666 C 261.718 37.098 264.489 37.853 265.945 36.59 C 260.036 35.855 253.923 38.678 248.493 40.788 C 253.255 44.033 257.251 48.165 261.588 51.931 C 266.808 56.464 272.26 60.723 277.377 65.375 C 268.927 62.141 260.801 58.765 253.035 54.043 C 237.193 44.411 228.878 34.114 208.731 35.447 Z M 231.832 102.444 C 226.665 104.313 221.64 106.633 216.454 108.409 C 226.938 110.743 237.971 112.234 248.194 115.473 C 233.68 117.189 219.454 115.685 204.929 116.073 C 204.762 124.328 204.04 132.679 202.325 140.763 C 212.973 142.061 223.583 142.425 234.261 143.231 C 251.293 143.433 269.663 143.916 286.43 140.495 C 284.668 130.545 283.646 120.343 284.702 110.249 C 280.901 109.521 273.157 108.482 270.746 105.162 C 270.608 104.972 270.46 104.791 270.318 104.603 L 269.995 104.167 C 266.607 105.08 265.218 109.168 260.998 110.083 C 252.571 111.912 244.128 107.967 236.706 104.499 C 235.272 103.829 233.383 102.58 231.832 102.444 Z M 216.348 232.383 L 214.607 231.681 C 212.34 233.163 211.537 235.873 211.027 238.41 C 209.539 245.813 210.032 254.944 214.501 261.297 C 214.857 261.802 215.225 262.187 215.71 262.568 L 216.039 262.549 C 217.496 263.36 217.95 263.886 219.688 263.507 C 219.957 263.449 220.216 263.349 220.481 263.27 L 221.068 263.715 L 220.803 264 C 225.081 263.504 229.225 261.642 233.473 260.821 C 241.291 259.308 257.984 259.1 264.808 263.69 C 264.876 263.297 264.947 262.776 265.098 262.414 C 265.674 261.026 266.272 260.907 267.558 260.304 C 269.628 258.106 272.832 253.001 274.331 251.715 C 274.482 251.586 274.656 251.488 274.819 251.374 L 274.52 250.385 C 274.411 249.646 274.423 249.098 274.555 248.36 C 275.268 244.364 275.587 239.63 273.684 235.887 C 272.991 235.343 272.727 234.895 271.793 234.885 C 268.027 234.845 262.743 239.656 260.242 242.274 C 261.372 237.588 266.97 235.435 270.637 232.795 C 261.689 232.662 253.353 228.778 244.374 228.799 C 234.711 228.82 226.138 233.28 216.348 232.383 Z M 299.507 154.7 C 300.664 155.332 302.107 157.871 312.642 158.555 C 316.34 158.795 323.927 158.136 325.225 157.972 C 338.019 156.355 348.94 149.819 356.979 139.477 C 364.072 130.351 366.056 119.086 364.508 107.782 C 363.83 102.828 359.575 86.989 355.781 84.154 C 354.789 87.095 355.255 91.722 355.096 94.894 C 354.615 104.504 351.424 116.714 344.994 124.14 C 336.673 133.751 324.253 135.545 312.247 136.071 C 309.852 136.176 307.304 135.78 304.953 136.077 C 302.359 136.405 299.69 138.462 298.134 140.473 C 296.265 142.89 295.225 145.954 295.764 149.013 C 296.148 151.194 297.501 153.606 299.507 154.7 Z M 132.576 84.172 C 127.008 95.016 123.979 104.305 123.968 116.522 C 123.965 119.503 123.896 122.699 124.87 125.555 C 125.14 126.347 127.151 133.004 129.303 135.949 C 133.687 141.947 139.602 147.591 145.794 150.77 C 151.494 153.697 157.746 155.318 163.928 156.878 C 171.864 157.951 182.466 159.492 189.321 154.179 C 191.232 152.698 192.635 150.729 192.948 148.288 C 193.336 145.266 192.058 142.276 190.112 140.022 C 187.575 137.082 184.432 135.998 180.642 135.771 C 165.329 134.853 154.868 136.374 143.281 124 C 133.265 113.302 133.543 85.187 132.576 84.172 Z M 270.637 232.795 C 266.97 235.435 261.372 237.588 260.242 242.274 C 262.743 239.656 268.027 234.845 271.793 234.885 C 272.727 234.895 272.991 235.343 273.684 235.887 C 275.587 239.63 275.268 244.364 274.555 248.36 C 274.423 249.098 274.411 249.646 274.52 250.385 C 274.974 249.374 275.185 248.892 275.997 248.106 L 276.491 248.63 C 276.687 250.202 276.93 251.748 277.216 253.306 C 277.283 253.103 277.376 252.906 277.418 252.697 C 277.721 251.152 277.548 249.156 277.585 247.567 C 277.74 241.049 277.116 233.947 274.014 231.704 C 272.695 231.97 271.724 232.148 270.637 232.795 Z M 281.488 178.947 C 280.615 180.448 279.896 181.251 279.874 183.008 C 280.678 183.902 281.341 184.423 282.391 185.008 C 283.401 183.657 283.752 182.925 284.065 181.268 C 283.777 180.258 283.821 179.562 282.724 179.155 C 282.421 179.042 281.821 178.987 281.488 178.947 Z M 204.595 178.947 C 204.328 180.603 204.028 181.841 204.695 183.454 C 205.728 184.393 206.322 184.52 207.692 184.712 C 207.907 183.073 208.275 181.617 207.538 180.061 C 206.53 179.218 205.882 179.119 204.595 178.947 Z" style="" transform="matrix(1, 0, 0, 1, 0, -1.4210854715202004e-14)"/>
  <path fill="#A56F47" d="M 272.026 284.894 C 274.082 290.466 269.497 298.412 271.378 302.252 C 266.219 304.819 260.871 306.853 255.765 309.578 C 261.407 301.481 266.948 293.363 272.026 284.894 Z" transform="matrix(1, 0, 0, 1, 0, -1.4210854715202004e-14)"/>
  <path fill="#EAC5A8" d="M 174.879 375.995 C 186.372 374.465 203.404 371.161 214.534 374.226 L 217.595 375.046 C 218.202 376.266 219.142 377.314 218.728 378.645 L 217.979 378.904 C 217.979 378.904 216.806 379.485 215.628 379.587 L 214.365 379.683 C 212.909 379.016 212.964 378.926 211.46 379.507 C 211.012 379.68 210.921 379.8 210.416 379.858 C 204.224 380.564 179.792 379.147 174.879 375.995 Z" transform="matrix(1, 0, 0, 1, 0, -1.4210854715202004e-14)"/>
  <path fill="#D28B51" d="M 174.584 390.233 C 174.163 387.82 173.697 385.466 173.076 383.094 C 172.559 381.122 171.61 378.27 172.696 376.41 L 174.879 375.995 C 179.792 379.147 204.224 380.564 210.416 379.858 C 210.921 379.8 211.012 379.68 211.46 379.507 C 212.964 378.926 212.909 379.016 214.365 379.683 C 201.529 384.156 187.772 386.93 174.584 390.233 Z" transform="matrix(1, 0, 0, 1, 0, -1.4210854715202004e-14)"/>
  <path fill="#EAC5A8" d="M 290.775 409.726 L 291.191 408.431 C 291.356 408.405 291.523 408.389 291.685 408.353 C 293.083 408.047 294.298 407.249 295.708 406.897 C 298.356 406.236 303.649 405.934 305.827 404.64 C 306.959 403.967 305.905 403.1 307.713 403.52 L 307.621 404.572 C 309.972 405.45 312.354 403.294 314.703 404.108 C 314.698 404.403 314.637 404.702 314.688 404.993 C 314.73 405.242 314.88 405.46 314.976 405.694 C 316.062 405.929 316.534 405.759 317.533 405.403 C 322.663 403.579 329.192 410.421 336.152 407.839 L 337.416 408.2 L 337.953 409.492 L 338.656 409.505 C 342.742 409.604 347.023 409.994 350.986 411.024 L 350.592 412.067 C 341.719 413.102 297.755 412.397 290.775 409.726 Z" transform="matrix(1, 0, 0, 1, 0, -1.4210854715202004e-14)"/>
  <path fill="#A56F47" d="M 256.368 178.187 C 259.571 189.131 269.955 213.758 269.589 223.918 C 268.795 225.016 268.18 225.378 266.82 225.64 C 265.117 225.968 263.421 225.897 261.761 225.441 L 261.528 224.585 C 259.032 215.298 252.154 185.476 256.368 178.187 Z" transform="matrix(1, 0, 0, 1, 0, -1.4210854715202004e-14)"/>
  <path fill="#A56F47" d="M 228.302 225.171 C 227.756 225.436 227.775 225.447 227.088 225.66 C 224.821 226.361 221.702 226.496 219.554 225.42 C 216.439 220.183 229.672 186.323 231.669 178.148 L 231.855 177.368 C 236.821 191.915 227.134 221.937 228.302 225.171 Z" transform="matrix(1, 0, 0, 1, 0, -1.4210854715202004e-14)"/>
  <path fill="#A56F47" d="M 240.206 267.03 C 247.042 266.581 253.617 266.797 260.182 268.966 C 262.419 269.706 265.658 270.673 266.785 272.876 L 266.454 273.892 C 262.594 276.815 254.108 277.07 249.299 277.442 C 243.511 277.801 226.955 277.698 222.492 273.911 C 222.312 273.154 222.054 272.969 222.552 272.267 C 225.674 267.866 235.34 267.532 240.206 267.03 Z" transform="matrix(1, 0, 0, 1, 0, -1.4210854715202004e-14)"/>
  <path fill="#A56F47" d="M 271.104 193.774 C 272.226 192.657 273.389 191.573 274.53 190.476 L 275.33 190.586 C 275.285 190.956 275.124 191.329 275.196 191.694 C 275.734 194.423 278.197 198.186 279.323 200.863 C 281.725 206.572 283.869 212.412 286.091 218.193 C 290.358 212.234 294.783 206.592 296.692 199.382 C 296.92 200.443 297.142 201.507 297.299 202.582 C 298.833 213.128 290.571 222.813 284.641 230.582 C 282.259 227.518 279.698 224.819 276.83 222.21 C 275.498 212.504 273.543 203.261 271.104 193.774 Z" transform="matrix(1, 0, 0, 1, 0, -1.4210854715202004e-14)"/>
  <path fill="#EAC5A8" d="M 134.947 340.487 C 141.077 344.729 146.317 351.236 150.066 357.63 C 153.643 363.732 157.192 369.948 159.463 376.677 C 160.821 380.7 159.893 383.826 162.198 387.733 C 162.687 388.561 163.012 389.267 162.873 390.254 C 162.802 390.758 162.659 390.98 162.45 391.405 C 160.701 392.362 160.178 392.316 158.225 392.159 L 155.23 394.558 C 154.072 395.488 152.932 396.091 151.578 396.693 C 151.507 381.644 148.838 366.258 141.835 352.777 C 139.99 349.225 135.431 344.303 134.947 340.487 Z" transform="matrix(1, 0, 0, 1, 0, -1.4210854715202004e-14)"/>
  <path fill="#A56F47" d="M 211.998 190.562 L 212.761 190.142 C 214.417 191.351 215.765 192.754 217.184 194.223 C 214.793 203.701 213.595 213.196 211.57 222.709 C 207.659 224.421 205.907 227.045 203.536 230.416 C 197.81 222.827 189.772 213.034 191.287 202.806 C 191.448 201.716 191.737 200.653 192.045 199.597 C 192.479 200.244 192.792 200.839 193.068 201.57 C 195.368 207.672 198.916 212.321 203.141 217.241 C 204.838 213.545 212.574 193.131 211.998 190.562 Z" transform="matrix(1, 0, 0, 1, 0, -1.4210854715202004e-14)"/>
  <path fill="#EAC5A8" d="M 353.704 340.536 L 353.936 341.323 C 351.332 345.868 348.319 350.256 345.909 354.899 C 339.441 367.359 336.386 382.715 336.514 396.684 C 333.237 394.85 330.367 393.225 326.867 391.746 L 327.116 391.423 C 326.114 391.471 326.071 391.475 325.252 391.038 C 324.314 385.682 331.936 367.749 334.626 363.02 L 334.613 363.174 C 339.284 354.915 345.968 346.085 353.704 340.536 Z" transform="matrix(1, 0, 0, 1, 0, -1.4210854715202004e-14)"/>
  <path fill="#A56F47" d="M 197.103 242.798 C 197.969 248.603 198.86 254.311 201.117 259.775 C 203.619 265.833 207.919 270.661 211.34 276.173 C 214.577 281.388 217.424 286.841 220.654 292.061 C 224.457 298.205 228.764 304.106 233.01 309.95 C 228.021 307.086 222.781 304.907 217.502 302.649 C 218.171 301.099 217.491 299.123 217.155 297.538 C 216.306 293.533 214.36 285 210.4 283.177 C 209.014 282.539 208.672 282.741 207.316 283.206 C 207.198 283.436 207.085 283.668 206.961 283.896 C 206.843 284.113 206.715 284.324 206.592 284.538 C 199.706 273.988 191.734 264.252 194.583 250.796 C 195.159 248.075 196.148 245.407 197.103 242.798 Z" transform="matrix(1, 0, 0, 1, 0, -1.4210854715202004e-14)"/>
  <path fill="#A56F47" d="M 188.917 227.348 C 182.176 236.237 175.194 244.96 168.942 254.204 C 173.279 252.402 177.568 250.584 181.779 248.496 C 183.406 261.093 188.635 269.517 197.806 278.177 C 197.458 278.179 176.728 273.677 176.496 273.576 L 176.93 273.021 C 166.314 266.618 156.086 262.101 143.847 259.741 C 158.027 248.539 172.866 235.664 188.917 227.348 Z" transform="matrix(1, 0, 0, 1, 0, -1.4210854715202004e-14)"/>
  <path fill="#A56F47" d="M 300.276 227.891 C 313.6 233.445 332.566 250.809 344.924 259.884 C 332.612 261.579 320.202 267.008 309.878 273.882 C 307.725 274.674 293.908 277.677 290.884 278.156 C 299.209 269.703 304.991 260.55 306.424 248.686 L 319.518 254.169 C 313.089 245.419 305.63 237.368 300.276 227.891 Z" transform="matrix(1, 0, 0, 1, 0, -1.4210854715202004e-14)"/>
  <path fill="#EAC5A8" d="M 134.299 411.511 C 136.019 411.138 142.32 409.256 143.503 410.029 C 143.784 410.212 143.984 410.559 144.312 410.628 C 144.36 410.638 151.25 407.851 152.905 407.765 C 153.237 408.007 153.866 408.486 154.225 408.647 C 155.139 409.057 155.399 408.912 156.229 408.445 L 156.13 407.195 C 158.705 406.286 162.827 406.723 165.65 406.528 C 165.653 406.312 165.68 406.095 165.659 405.88 C 165.628 405.561 165.549 405.247 165.494 404.931 L 166.77 404.846 L 167.606 405.823 L 168.654 405.741 C 169.087 405.242 169.818 404.18 170.35 403.877 C 172.022 402.926 175.2 403.85 177.086 403.537 C 179.291 403.17 181.293 401.323 183.512 400.793 C 184.826 400.48 185.215 400.939 186.344 401.56 C 194.486 396.336 199.09 399.977 203.347 397.438 L 202.683 396.42 C 207.072 394.427 214.616 396.271 218.382 393.185 L 217.995 392.064 C 219.27 391.476 219.094 393.032 220.897 392.411 C 224.219 391.268 226.66 388.049 230.452 388.523 C 231.396 388.641 232.047 388.702 233.003 388.511 C 233.091 388.017 233.188 387.526 233.29 387.035 L 241.883 383.913 C 242.664 384.236 243.212 384.405 244.061 384.562 C 244.282 384.051 244.428 383.67 244.724 383.183 C 245.383 382.098 246.75 381.967 247.89 381.71 L 248.944 382.499 L 249.353 381.969 L 248.965 381.561 C 249.821 380.855 250.307 380.517 251.404 380.305 L 251.62 381.738 L 251.961 381.745 C 253.137 380.792 254.355 379.946 255.643 379.148 C 257.801 377.811 261.038 375.893 263.521 376.485 L 264.07 376.621 L 264.585 375.221 L 265.71 374.807 L 266.925 375.4 C 267.032 375.197 267.127 374.988 267.246 374.793 C 267.915 373.696 267.963 373.951 269.102 373.71 L 270.144 374.761 L 271.137 374.503 L 271.011 373.22 C 273.965 372.303 276.577 375.117 279.691 373.177 C 280.409 372.73 281.019 372.273 281.924 372.298 C 283.499 372.341 283.893 372.717 285.013 373.692 C 286 373.869 286.492 373.886 287.469 373.561 C 289.398 372.92 290.635 372.557 292.687 372.761 C 296.89 373.181 300.876 374.05 304.978 375.05 C 305.666 374.392 305.284 374.727 306.137 374.061 C 307.55 374.239 308.308 374.948 309.383 375.802 L 309.845 376.175 C 312.014 375.437 313.205 375.703 315.349 376.412 C 308.114 380.03 281.452 379.358 271.117 381.659 C 259.294 384.292 247.601 389.137 236.113 393.019 C 209.117 402.143 181.654 410.486 153.079 412.408 C 147.768 412.766 140.54 413.784 135.391 412.703 C 134.925 412.605 134.786 412.495 134.418 412.282 L 134.299 411.511 Z" transform="matrix(1, 0, 0, 1, 0, -1.4210854715202004e-14)"/>
  <path fill="#A56F47" d="M 406.326 377.915 C 408.823 374.268 411.284 370.632 413.558 366.838 C 415.412 393.101 410.574 414.947 392.907 435.22 C 389.229 439.441 385.125 443.277 380.898 446.941 C 382.163 442.349 383.235 437.712 384.112 433.031 C 384.491 431.103 384.557 428.235 385.245 426.501 C 385.335 422.567 385.088 418.774 384.701 414.859 C 384.653 413.847 384.112 413.518 383.496 412.744 C 390.586 400.793 398.196 389.183 406.326 377.915 Z" transform="matrix(1, 0, 0, 1, 0, -1.4210854715202004e-14)"/>
  <path fill="#D28B51" d="M 406.326 377.915 C 407.273 378.972 407.371 379.533 407.308 380.964 C 406.731 393.963 397.982 411.136 390.632 421.719 C 389.67 423.104 387.99 426.061 386.629 426.873 C 386.345 427.042 386.017 427.126 385.711 427.252 L 385.245 426.501 C 385.335 422.567 385.088 418.774 384.701 414.859 C 384.653 413.847 384.112 413.518 383.496 412.744 C 390.586 400.793 398.196 389.183 406.326 377.915 Z" transform="matrix(1, 0, 0, 1, 0, -1.4210854715202004e-14)"/>
  <path fill="#A56F47" d="M 74.83 368.23 C 76.709 370.989 78.954 373.453 80.629 376.354 C 88.634 386.668 99.348 400.471 104.759 412.276 L 104.554 414.246 C 103.893 418.974 103.347 423.681 103.534 428.464 C 104.136 430.079 104.115 432.641 104.445 434.421 C 105.234 438.676 106.218 442.776 107.549 446.901 C 103.5 443.703 99.76 440.178 96.328 436.326 C 78.93 416.835 73.421 393.792 74.83 368.23 Z" transform="matrix(1, 0, 0, 1, 0, -1.4210854715202004e-14)"/>
  <path fill="#D28B51" d="M 80.629 376.354 C 88.634 386.668 99.348 400.471 104.759 412.276 L 104.554 414.246 C 103.893 418.974 103.347 423.681 103.534 428.464 C 100.38 426.009 97.487 421.823 95.267 418.518 C 89.967 410.632 78.84 385.715 80.629 376.354 Z" transform="matrix(1, 0, 0, 1, 0, -1.4210854715202004e-14)"/>
  <path fill="#A56F47" d="M 202.719 301.843 C 217.863 307.815 232.753 320.476 239.265 335.63 C 240.46 338.412 241.056 341.191 241.612 344.148 C 238.602 351.655 230.794 359.267 224.081 363.601 C 190.821 357.275 179.231 363.028 157.586 331.347 C 154.464 326.778 151.699 321.8 149.979 316.523 C 151.613 316.586 153.062 316.7 154.507 317.532 C 157.36 319.173 159.893 322.013 162.291 324.251 C 169.546 331.024 177.412 339.305 186.558 343.406 C 198.632 348.821 213.768 349.059 226.832 350.308 C 227.398 332.178 222.995 322.589 209.96 309.686 C 207.612 307.361 203.992 304.9 202.719 301.843 Z" transform="matrix(1, 0, 0, 1, 0, -1.4210854715202004e-14)"/>
  <path fill="#A56F47" d="M 264.164 363.613 C 259.12 360.412 250.546 353.119 248.622 347.342 C 246.962 342.359 248.639 336.999 250.882 332.483 C 257.551 319.056 271.685 306.687 285.939 301.992 C 284.88 304.786 281.016 307.137 278.818 309.22 C 266.967 320.449 260.037 333.91 262.052 350.406 C 275.453 348.841 289.673 348.659 302.28 343.342 C 315.058 337.953 327.444 318.026 338.33 316.062 C 335.837 323.345 332.218 329.706 327.636 335.886 C 308.183 362.12 294.082 359.195 264.164 363.613 Z" transform="matrix(1, 0, 0, 1, 0, -1.4210854715202004e-14)"/>
  <path fill="#C5C5C0" d="M 185.675 151.993 C 186.733 152.467 187.016 152.309 187.486 153.424 C 187.024 153.959 186.997 154.047 186.333 154.5 C 183.926 156.14 176.998 156.566 174.119 155.895 C 173.004 155.635 172.771 155.565 172.155 154.585 C 171.188 153.951 170.406 153.32 169.583 152.509 L 170.017 151.971 C 173.664 152.025 176.358 153.44 179.773 154.239 C 180.606 154.434 180.999 154.07 181.683 153.635 C 182.777 152.941 183.861 152.581 185.088 152.181 L 185.675 151.993 Z" transform="matrix(1, 0, 0, 1, 0, -1.4210854715202004e-14)"/>
  <path fill="#C5C5C0" d="M 302.01 153.094 C 301.521 152.269 301.222 151.962 301.498 151.091 L 302.33 150.832 C 303.862 151.117 306.219 151.99 307.811 152.092 C 312.475 152.392 319.747 150.459 323.758 151.706 C 324.245 152.299 324.243 152.557 324.046 153.199 C 322.768 153.868 315.095 155.235 311.031 154.795 C 309.019 154.577 305.351 153.536 302.01 153.094 Z" style="" transform="matrix(1, 0, 0, 1, 0, -1.4210854715202004e-14)"/>
  <path fill="#A56F47" d="M 216.348 232.383 C 226.138 233.28 234.711 228.82 244.374 228.799 C 253.353 228.778 261.689 232.662 270.637 232.795 C 266.97 235.435 261.372 237.588 260.242 242.274 C 262.743 239.656 268.027 234.845 271.793 234.885 C 272.727 234.895 272.991 235.343 273.684 235.887 C 275.587 239.63 275.268 244.364 274.555 248.36 C 274.423 249.098 274.411 249.646 274.52 250.385 L 274.819 251.374 C 274.656 251.488 274.482 251.586 274.331 251.715 C 272.832 253.001 269.628 258.106 267.558 260.304 C 266.272 260.907 265.674 261.026 265.098 262.414 C 264.947 262.776 264.876 263.297 264.808 263.69 C 257.984 259.1 241.291 259.308 233.473 260.821 C 229.225 261.642 225.081 263.504 220.803 264 L 221.068 263.715 L 220.481 263.27 C 220.216 263.349 219.957 263.449 219.688 263.507 C 217.95 263.886 217.496 263.36 216.039 262.549 L 215.71 262.568 C 215.225 262.187 214.857 261.802 214.501 261.297 C 210.032 254.944 209.539 245.813 211.027 238.41 C 211.537 235.873 212.34 233.163 214.607 231.681 L 216.348 232.383 Z M 216.039 262.549 C 217.496 263.36 217.95 263.886 219.688 263.507 C 219.957 263.449 220.216 263.349 220.481 263.27 C 221.479 262.638 221.054 263.04 221.746 262.054 C 221.573 260.917 221.492 259.819 221.433 258.672 C 222.541 256.347 220.535 249.378 219.989 246.795 C 224.247 250.254 228.412 253.718 232.39 257.502 C 231.832 254.591 227.713 243.095 228.218 241.513 C 226.483 237.604 219.867 234.947 216.348 232.383 L 214.607 231.681 C 212.34 233.163 211.537 235.873 211.027 238.41 C 209.539 245.813 210.032 254.944 214.501 261.297 C 214.857 261.802 215.225 262.187 215.71 262.568 L 216.039 262.549 Z" transform="matrix(1, 0, 0, 1, 0, -1.4210854715202004e-14)"/>
  <path fill="#000000" d="M 260.242 242.274 C 262.743 239.656 268.027 234.845 271.793 234.885 C 272.727 234.895 272.991 235.343 273.684 235.887 C 275.587 239.63 275.268 244.364 274.555 248.36 C 274.423 249.098 274.411 249.646 274.52 250.385 L 274.819 251.374 C 274.656 251.488 275.903 253.457 275.752 253.586 C 274.253 254.872 270.741 258.853 268.671 261.051 C 268.31 260.398 267.397 259.865 266.813 259.399 C 266.676 259.289 266.534 259.188 266.394 259.082 C 265.455 254.88 267.126 250.391 268.2 246.329 C 263.997 250.299 259.291 253.486 255.308 257.749 C 256.829 252.551 258.474 247.392 260.242 242.274 Z" transform="matrix(1, 0, 0, 1, 0, -1.4210854715202004e-14)"/>
  <path fill="#000000" d="M 216.039 262.549 L 215.71 262.568 C 215.225 262.187 214.857 261.802 214.501 261.297 C 210.032 254.944 209.539 245.813 211.027 238.41 C 211.537 235.873 212.34 233.163 214.607 231.681 L 216.348 232.383 C 219.867 234.947 226.483 237.604 228.218 241.513 C 227.713 243.095 231.832 254.591 232.39 257.502 C 228.412 253.718 224.247 250.254 219.989 246.795 C 220.535 249.378 222.541 256.347 221.433 258.672 C 221.492 259.819 221.573 260.917 221.746 262.054 C 221.054 263.04 221.251 263.949 220.253 264.581 C 219.988 264.66 220.342 264.216 220.073 264.274 C 218.335 264.653 217.496 263.36 216.039 262.549 Z M 215.948 263.215 L 216.097 260.694 C 215.185 258.64 212.412 256.752 212.242 254.525 C 212.152 253.347 212.472 252.473 213.229 251.599 C 216.191 248.179 211.377 241.078 213.905 236.918 C 214.31 236.253 214.715 235.712 215.507 235.566 C 218.824 234.953 225.399 239.763 228.218 241.513 C 226.483 237.604 219.867 234.947 216.348 232.383 L 214.607 231.681 C 212.34 233.163 211.537 235.873 211.027 238.41 C 209.539 245.813 210.032 254.944 214.501 261.297 C 214.857 261.802 215.225 262.187 215.71 262.568 L 215.948 263.215 Z" transform="matrix(1, 0, 0, 1, 0, -1.4210854715202004e-14)"/>
  <path fill="#A56F47" d="M 380.261 333.28 C 382.926 328.581 385.606 323.851 387.583 318.812 C 388.746 315.848 393.739 298.809 394.271 298.075 L 394.541 298.907 C 397.782 318.551 395.535 335.733 384.561 352.632 C 378.693 344.289 372.003 337.953 362.661 333.723 C 377.784 354.453 385.41 375.234 381.442 401.063 C 380.286 408.59 378.155 415.95 376.052 423.257 C 378.44 419.856 380.746 415.82 383.496 412.744 C 384.112 413.518 384.653 413.847 384.701 414.859 L 384.117 414.794 C 381.378 436.877 364.925 457.768 350.763 474.259 C 350.609 474.229 350.455 474.196 350.3 474.168 C 344.722 473.137 338.789 473.177 333.13 472.697 C 318.481 471.454 303.915 468.194 290.9 461.176 C 311.433 465.719 332.758 465.556 351.003 453.994 C 354.998 451.463 358.774 448.605 362.547 445.759 C 335.49 454.572 304.653 453.492 279.128 440.546 C 272.162 437.014 265.649 432.585 260.511 426.642 C 263.269 424.501 266.001 422.159 268.906 420.232 C 269.083 420.45 269.239 420.687 269.436 420.887 C 272.077 423.576 277.611 425.914 281.054 427.501 C 300.314 436.375 321.637 442.695 342.958 443.007 C 348.915 443.094 354.375 442.532 358.803 438.07 C 370 426.785 374.002 399.434 373.727 384.313 C 373.628 379.121 373.073 373.979 372.063 368.886 C 370.722 361.981 365.004 340.361 359.783 335.285 C 360.247 334.629 360.579 333.926 360.946 333.213 L 360.442 332.469 C 355.526 331.323 347.183 335.184 342.624 336.895 C 344.727 330.114 346.013 323.859 346.361 316.758 C 358.462 320.471 370.435 325.1 380.261 333.28 Z" transform="matrix(1, 0, 0, 1, 0, -1.4210854715202004e-14)"/>
  <path fill="#D28B51" d="M 359.783 335.285 C 365.004 340.361 370.722 361.981 372.063 368.886 C 373.073 373.979 373.628 379.121 373.727 384.313 C 374.002 399.434 370 426.785 358.803 438.07 C 354.375 442.532 348.915 443.094 342.958 443.007 C 321.637 442.695 300.314 436.375 281.054 427.501 C 277.611 425.914 272.077 423.576 269.436 420.887 C 269.239 420.687 269.083 420.45 268.906 420.232 C 274.127 416.758 284.137 410.335 290.116 408.998 L 290.775 409.726 C 297.755 412.397 341.719 413.102 350.592 412.067 L 350.986 411.024 C 354.093 411.386 357.252 412.219 360.322 412.85 C 353.4 406.027 345.308 400.751 336.514 396.684 C 336.386 382.715 339.441 367.359 345.909 354.899 C 348.319 350.256 351.332 345.868 353.936 341.323 L 353.704 340.536 C 355.082 338.669 357.956 336.804 359.783 335.285 Z" transform="matrix(1, 0, 0, 1, 0, -1.4210854715202004e-14)"/>
  <path fill="#A56F47" d="M 93.879 299.977 C 96.744 304.602 97.999 310.768 99.926 315.872 C 102.246 322.016 105.294 327.933 108.585 333.611 C 117.942 326.045 130.611 319.528 142.454 316.933 C 142.84 323.884 144.526 329.823 146.242 336.525 C 142.523 335.345 131.539 330.799 128.061 332.532 C 127.925 332.599 127.811 332.705 127.686 332.791 C 127.645 333.907 127.741 334.068 128.232 335.018 C 124.277 342.453 120.68 349.954 118.361 358.09 C 112.819 377.543 114.283 399.992 120.19 419.134 C 122.531 426.721 126.379 437.359 133.909 441.203 C 144.583 446.651 173.884 439.59 185.151 435.541 C 199.313 430.453 213.674 423.435 226.833 416.209 C 229.963 414.49 232.845 412.361 236.029 410.715 C 242.106 407.575 248.854 405.28 254.767 401.933 C 259.755 399.11 268.095 388.72 273.124 388.331 C 272.456 392.333 254.983 403.027 256.344 406.165 C 260.55 407.484 264.687 406.56 268.973 406.753 C 259.526 412.519 249.916 418.021 240.429 423.725 C 205.333 444.826 177.19 458.122 134.928 448.133 C 131.729 447.359 128.55 446.512 125.39 445.592 C 130.335 449.292 135.216 453.12 140.629 456.123 C 157.536 465.504 176.57 464.508 195.084 462.06 C 176.697 471.519 157.455 472.435 137.307 473.893 C 125.88 460.944 115.346 446.566 108.951 430.43 C 107.076 425.7 106.261 417.754 104.554 414.246 L 104.759 412.276 C 107.424 416.223 110.205 420.086 113.104 423.864 C 111.494 419.193 110.158 414.445 109.097 409.621 C 108.036 404.796 107.257 399.926 106.76 395.011 C 106.691 394.328 106.63 393.645 106.577 392.961 C 106.525 392.277 106.481 391.592 106.446 390.907 C 106.411 390.221 106.384 389.536 106.367 388.851 C 106.349 388.165 106.34 387.479 106.339 386.793 C 106.339 386.107 106.347 385.421 106.364 384.735 C 106.381 384.049 106.406 383.363 106.44 382.678 C 106.474 381.992 106.517 381.308 106.568 380.624 C 106.619 379.94 106.679 379.256 106.748 378.574 C 106.817 377.891 106.894 377.209 106.98 376.529 C 107.066 375.848 107.16 375.169 107.263 374.491 C 107.366 373.812 107.477 373.135 107.597 372.46 C 107.717 371.784 107.846 371.111 107.983 370.439 C 108.12 369.766 108.265 369.095 108.419 368.427 C 108.573 367.758 108.735 367.092 108.906 366.428 C 109.077 365.763 109.256 365.101 109.443 364.441 C 109.63 363.781 109.826 363.123 110.03 362.468 C 110.234 361.813 110.446 361.161 110.667 360.511 C 110.887 359.861 111.115 359.215 111.352 358.571 C 111.589 357.927 111.834 357.286 112.087 356.648 C 112.34 356.01 112.6 355.376 112.869 354.745 C 113.138 354.113 113.415 353.486 113.7 352.862 C 113.985 352.237 114.277 351.616 114.577 351 C 114.878 350.383 115.186 349.77 115.502 349.161 C 115.817 348.552 116.141 347.947 116.472 347.347 C 116.803 346.745 117.142 346.149 117.488 345.557 C 117.834 344.964 118.187 344.376 118.548 343.793 C 118.909 343.209 119.278 342.63 119.653 342.056 C 120.028 341.482 120.411 340.913 120.801 340.349 C 121.191 339.784 121.588 339.224 121.992 338.67 C 122.396 338.115 122.807 337.566 123.225 337.022 C 123.643 336.478 124.068 335.939 124.499 335.406 C 124.93 334.872 125.368 334.344 125.813 333.822 C 115.96 337.901 109.692 344.137 103.837 352.94 C 102.689 351.112 101.588 349.256 100.533 347.374 C 92.609 332.919 89.151 316.055 93.879 299.977 Z" transform="matrix(1, 0, 0, 1, 0, -1.4210854715202004e-14)"/>
  <path fill="#D28B51" d="M 199.318 149.16 C 232.289 153.445 256.338 153.372 289.196 149.085 C 293.465 156.956 298.794 163.305 307.715 166.022 C 314.977 168.234 322.885 167.47 330.223 166.049 C 333.725 167.547 337.246 168.998 340.787 170.401 C 327.858 174.828 314.056 176.87 301.353 170.584 C 300.098 169.961 298.86 169.304 297.641 168.613 C 298.697 170.97 300.117 173.801 299.016 176.397 C 298.306 178.069 297.044 178.787 295.607 179.759 L 294.834 180.292 L 294.341 180.625 C 293.046 187.673 290.584 193.722 287.852 200.307 C 289.717 198.555 291.674 196.097 294.232 195.669 C 295.779 196.733 295.946 197.688 296.692 199.382 C 294.783 206.592 290.358 212.234 286.091 218.193 C 283.869 212.412 281.725 206.572 279.323 200.863 C 278.197 198.186 275.734 194.423 275.196 191.694 C 275.124 191.329 275.285 190.956 275.33 190.586 C 277.263 191.387 279.141 192.169 281.234 192.445 C 283.184 192.703 285.256 192.548 286.843 191.267 C 290.279 188.493 290.262 181.784 290.682 177.799 C 292.761 175.727 294.609 173.956 295.125 170.976 C 294.919 170.297 294.876 169.682 294.324 169.187 C 292.472 167.528 289.82 167.295 287.454 167.254 C 287.26 167.31 287.068 167.373 286.872 167.421 C 285.943 167.645 286.385 167.578 285.571 167.506 C 283.99 167.366 281.926 167.755 280.736 168.875 C 280.05 169.52 279.54 170.384 279.055 171.183 C 277.164 171.251 276.261 171.99 274.977 173.417 C 272.15 176.559 271.846 182.557 266.957 183.367 L 266.468 182.956 C 263.458 179.027 259.935 175.713 256.174 172.517 L 256.368 178.187 C 252.154 185.476 259.032 215.298 261.528 224.585 L 261.761 225.441 C 250.518 222.213 239.521 221.881 228.302 225.171 C 227.134 221.937 236.821 191.915 231.855 177.368 C 231.861 175.953 232.207 175.04 231.216 173.961 C 228.136 174.491 224.276 180.047 222.336 182.553 C 221.672 183.179 221.145 183.033 220.261 183.129 C 217.746 181.312 215.937 177.442 214.017 174.936 C 212.185 172.544 208.502 168.192 205.312 167.866 C 204.991 167.834 204.666 167.845 204.349 167.786 C 204.128 167.746 203.934 167.602 203.712 167.572 C 202.905 167.462 202.267 167.649 201.372 167.475 C 201.095 167.421 200.822 167.354 200.546 167.293 C 198.665 167.292 196.209 167.537 194.787 168.916 C 194.135 169.548 193.948 170.062 193.833 170.979 C 193.492 173.708 196.225 175.942 197.956 177.639 C 198.13 181.773 197.744 188.221 201.241 191.208 C 202.728 192.479 204.686 192.686 206.553 192.419 C 208.514 192.138 210.22 191.395 211.998 190.562 C 212.574 193.131 204.838 213.545 203.141 217.241 C 198.916 212.321 195.368 207.672 193.068 201.57 C 192.792 200.839 192.479 200.244 192.045 199.597 C 192.798 197.977 193.494 196.315 194.413 194.782 L 200.134 200.205 C 197.771 193.658 195.603 187.282 194.151 180.458 C 191.949 179.084 189.903 178.033 189.443 175.248 C 189.105 173.193 189.383 170.799 189.467 168.715 C 179.434 174.731 168.799 175.89 157.438 173.096 C 154.108 172.277 150.813 171.246 147.511 170.314 L 158.636 166.031 C 169.199 167.931 179.259 168.467 188.556 162.184 C 193.41 158.904 196.712 154.333 199.318 149.16 Z" transform="matrix(1, 0, 0, 1, 0, -1.4210854715202004e-14)"/>
  <path fill="#EAC5A8" d="M 200.546 167.293 C 200.928 166.321 201.144 165.927 202.179 165.541 C 205.146 164.436 209.994 166.92 212.382 168.488 C 217.353 171.753 221.155 176.626 222.336 182.553 C 221.672 183.179 221.145 183.033 220.261 183.129 C 217.746 181.312 215.937 177.442 214.017 174.936 C 212.185 172.544 208.502 168.192 205.312 167.866 C 204.991 167.834 204.666 167.845 204.349 167.786 C 204.128 167.746 203.934 167.602 203.712 167.572 C 202.905 167.462 202.267 167.649 201.372 167.475 C 201.095 167.421 200.822 167.354 200.546 167.293 Z" transform="matrix(1, 0, 0, 1, 0, -1.4210854715202004e-14)"/>
  <path fill="#EAC5A8" d="M 266.468 182.956 C 266.752 180.987 267.105 178.991 267.946 177.171 C 270.066 172.586 274.252 167.981 279.107 166.307 C 281.844 165.362 284.833 165.195 287.478 166.455 L 287.454 167.254 C 287.26 167.31 287.068 167.373 286.872 167.421 C 285.943 167.645 286.385 167.578 285.571 167.506 C 283.99 167.366 281.926 167.755 280.736 168.875 C 280.05 169.52 279.54 170.384 279.055 171.183 C 277.164 171.251 276.261 171.99 274.977 173.417 C 272.15 176.559 271.846 182.557 266.957 183.367 L 266.468 182.956 Z" transform="matrix(1, 0, 0, 1, 0, -1.4210854715202004e-14)"/>
  <path fill="#D28B51" d="M 128.232 335.018 C 130.354 336.716 133.158 338.49 134.947 340.487 C 135.431 344.303 139.99 349.225 141.835 352.777 C 148.838 366.258 151.507 381.644 151.578 396.693 C 142.691 401.121 134.98 406.636 127.411 413.016 C 129.641 412.499 132.03 411.726 134.299 411.511 L 134.418 412.282 C 134.786 412.495 134.925 412.605 135.391 412.703 C 140.54 413.784 147.768 412.766 153.079 412.408 C 181.654 410.486 209.117 402.143 236.113 393.019 C 247.601 389.137 259.294 384.292 271.117 381.659 C 281.452 379.358 308.114 380.03 315.349 376.412 L 316.188 376.68 C 316.726 380.704 314.377 387.127 313.447 391.204 C 298.074 392.18 282.587 399.914 268.973 406.753 C 264.687 406.56 260.55 407.484 256.344 406.165 C 254.983 403.027 272.456 392.333 273.124 388.331 C 268.095 388.72 259.755 399.11 254.767 401.933 C 248.854 405.28 242.106 407.575 236.029 410.715 C 232.845 412.361 229.963 414.49 226.833 416.209 C 213.674 423.435 199.313 430.453 185.151 435.541 C 173.884 439.59 144.583 446.651 133.909 441.203 C 126.379 437.359 122.531 426.721 120.19 419.134 C 114.283 399.992 112.819 377.543 118.361 358.09 C 120.68 349.954 124.277 342.453 128.232 335.018 Z" transform="matrix(1, 0, 0, 1, 0, -1.4210854715202004e-14)"/>
  <path fill="#D28B51" d="M 81.876 353.349 C 79.659 348.686 77.565 344.102 76.167 339.112 C 72.213 325.006 74.168 310.571 81.367 297.829 C 90.175 282.237 103.973 274.625 120.687 269.997 C 114.804 277.308 110.004 286.356 106.883 295.181 C 109.358 291.547 112.008 288.402 115.395 285.581 C 132.556 271.289 155.502 271.673 176.496 273.576 C 176.728 273.677 197.458 278.179 197.806 278.177 C 200.749 280.27 203.741 282.321 206.592 284.538 C 206.715 284.324 206.843 284.113 206.961 283.896 C 207.085 283.668 207.198 283.436 207.316 283.206 C 208.672 282.741 209.014 282.539 210.4 283.177 C 214.36 285 216.306 293.533 217.155 297.538 C 217.491 299.123 218.171 301.099 217.502 302.649 C 213.465 301.354 209.373 300.269 205.225 299.393 C 201.077 298.517 196.895 297.855 192.68 297.407 L 202.719 301.843 C 203.992 304.9 207.612 307.361 209.96 309.686 C 222.995 322.589 227.398 332.178 226.832 350.308 C 213.768 349.059 198.632 348.821 186.558 343.406 C 177.412 339.305 169.546 331.024 162.291 324.251 C 159.893 322.013 157.36 319.173 154.507 317.532 C 153.062 316.7 151.613 316.586 149.979 316.523 C 148.13 309.918 147.15 303.14 146.447 296.329 C 144.286 303.194 142.972 309.752 142.454 316.933 C 130.611 319.528 117.942 326.045 108.585 333.611 C 105.294 327.933 102.246 322.016 99.926 315.872 C 97.999 310.768 96.744 304.602 93.879 299.977 L 93.926 299.074 L 93.471 299.004 C 82.485 314.608 79.652 334.825 81.876 353.349 Z" transform="matrix(1, 0, 0, 1, 0, -1.4210854715202004e-14)"/>
  <path fill="#D28B51" d="M 272.026 284.894 C 281.059 267.629 287.893 263.925 291.189 243.24 C 292.232 245.752 293.231 248.203 293.767 250.883 C 296.359 263.84 288.96 274.379 282.246 284.687 C 285.214 282.651 288.032 280.353 290.884 278.156 C 293.908 277.677 307.725 274.674 309.878 273.882 C 330.385 271.022 353.759 271.48 370.984 284.451 C 375.339 287.73 378.747 291.461 382.137 295.709 C 378.392 286.332 373.631 278.252 367.618 270.155 C 383.961 274.147 398.508 282.398 407.35 297.133 C 407.801 297.887 408.233 298.651 408.646 299.426 C 409.059 300.201 409.452 300.986 409.826 301.781 C 410.201 302.575 410.555 303.379 410.889 304.191 C 411.224 305.003 411.538 305.822 411.832 306.65 C 412.126 307.478 412.399 308.312 412.652 309.153 C 412.905 309.994 413.137 310.841 413.348 311.694 C 413.559 312.546 413.749 313.403 413.918 314.265 C 414.087 315.127 414.234 315.992 414.36 316.862 C 414.485 317.731 414.59 318.603 414.673 319.477 C 414.756 320.351 414.817 321.227 414.856 322.105 C 414.896 322.982 414.914 323.86 414.91 324.738 C 414.906 325.616 414.881 326.494 414.834 327.371 C 414.787 328.248 414.718 329.123 414.627 329.997 C 414.537 330.87 414.425 331.741 414.292 332.61 C 414.159 333.478 414.004 334.342 413.828 335.202 C 413.651 336.062 413.454 336.918 413.236 337.769 C 411.849 343.191 409.589 348.123 406.827 352.967 C 408.654 332.385 405.224 316.584 394.541 298.907 L 394.271 298.075 C 393.739 298.809 388.746 315.848 387.583 318.812 C 385.606 323.851 382.926 328.581 380.261 333.28 C 370.435 325.1 358.462 320.471 346.361 316.758 C 345.679 309.579 344.513 303.317 341.303 296.809 C 340.842 303.308 339.851 309.726 338.33 316.062 C 327.444 318.026 315.058 337.953 302.28 343.342 C 289.673 348.659 275.453 348.841 262.052 350.406 C 260.037 333.91 266.967 320.449 278.818 309.22 C 281.016 307.137 284.88 304.786 285.939 301.992 C 288.884 300.126 292.895 298.941 296.113 297.4 C 287.627 297.955 279.478 299.711 271.378 302.252 C 269.497 298.412 274.082 290.466 272.026 284.894 Z" transform="matrix(1, 0, 0, 1, 0, -1.4210854715202004e-14)"/>
</svg>
